<?xml version="1.0" encoding="utf-8"?>
<!-- Generator: Adobe Illustrator 15.0.0, SVG Export Plug-In . SVG Version: 6.00 Build 0)  -->
<!DOCTYPE svg PUBLIC "-//W3C//DTD SVG 1.1//EN" "http://www.w3.org/Graphics/SVG/1.1/DTD/svg11.dtd">
<svg version="1.1" id="Layer_1" xmlns="http://www.w3.org/2000/svg" xmlns:xlink="http://www.w3.org/1999/xlink" x="0px" y="0px"
	 width="85.083px" height="69.454px" viewBox="0 0 85.083 69.454" enable-background="new 0 0 85.083 69.454" xml:space="preserve">
<path fill="#30AAE1" d="M21.271,7.868c0-1.352,0.957-3.009,2.127-3.685l6.382-3.684c1.17-0.675,3.084-0.675,4.255,0l6.381,3.684
	c1.17,0.676,2.126,2.334,2.126,3.685v7.369c0,1.351-0.957,3.009-2.126,3.684l-6.381,3.685c-1.171,0.675-3.085,0.675-4.255,0
	l-6.382-3.685c-1.17-0.675-2.127-2.333-2.127-3.684V7.868z"/>
<path fill="#7F7F7F" d="M21.271,7.868c0-1.352,0.957-3.009,2.127-3.685l6.382-3.684c1.17-0.675,3.084-0.675,4.255,0l6.381,3.684
	c1.17,0.676,2.126,2.334,2.126,3.685v7.369c0,1.351-0.957,3.009-2.126,3.684l-6.381,3.685c-1.171,0.675-3.085,0.675-4.255,0
	l-6.382-3.685c-1.17-0.675-2.127-2.333-2.127-3.684V7.868z"/>
<path fill="#FFFFFF" d="M38.733,5.897c-0.573,0.339-1.208,0.587-1.883,0.719C36.31,6.04,35.54,5.68,34.686,5.68
	c-1.637,0-2.964,1.328-2.964,2.965c0,0.232,0.027,0.458,0.077,0.675c-2.464-0.123-4.649-1.304-6.111-3.097
	c-0.255,0.438-0.401,0.947-0.401,1.49c0,1.029,0.524,1.936,1.319,2.468c-0.485-0.016-0.943-0.148-1.342-0.371v0.037
	c0,1.437,1.021,2.635,2.379,2.907c-0.25,0.068-0.511,0.104-0.782,0.104c-0.191,0-0.377-0.019-0.559-0.053
	c0.378,1.177,1.472,2.035,2.77,2.059c-1.015,0.795-2.292,1.27-3.683,1.27c-0.24,0-0.475-0.015-0.707-0.042
	c1.313,0.84,2.872,1.332,4.545,1.332c5.454,0,8.434-4.517,8.434-8.435c0-0.129-0.001-0.257-0.007-0.384
	c0.578-0.417,1.082-0.939,1.479-1.535c-0.532,0.236-1.103,0.395-1.703,0.466C38.042,7.171,38.511,6.589,38.733,5.897"/>
<path fill="#3D5C9C" d="M42.542,7.875c0-1.352,0.957-3.009,2.126-3.685l6.381-3.684c1.172-0.675,3.084-0.675,4.255,0l6.381,3.684
	c1.17,0.676,2.127,2.334,2.127,3.685v7.369c0,1.351-0.957,3.009-2.127,3.684l-6.381,3.685c-1.171,0.675-3.083,0.675-4.255,0
	l-6.381-3.685c-1.17-0.675-2.126-2.333-2.126-3.684V7.875L42.542,7.875z"/>
<path fill="#7F7F7F" d="M42.542,7.875c0-1.352,0.957-3.009,2.126-3.685l6.381-3.684c1.172-0.675,3.084-0.675,4.255,0l6.381,3.684
	c1.17,0.676,2.127,2.334,2.127,3.685v7.369c0,1.351-0.957,3.009-2.127,3.684l-6.381,3.685c-1.171,0.675-3.083,0.675-4.255,0
	l-6.381-3.685c-1.17-0.675-2.126-2.333-2.126-3.684V7.875L42.542,7.875z"/>
<path fill="#FFFFFF" d="M51.249,18.785h3v-7.22h2.024l0.263-2.551H54.25v-1.5c0-0.563,0.373-0.695,0.636-0.695H56.5V4.344
	l-2.224-0.009c-2.468,0-3.028,1.847-3.028,3.028v1.651h-1.427v2.551h1.427V18.785L51.249,18.785z"/>
<path fill="#7F7F7F" d="M0,7.875C0,6.524,0.957,4.866,2.126,4.19l6.382-3.685c1.17-0.675,3.085-0.675,4.254,0l6.381,3.685
	c1.171,0.676,2.126,2.333,2.126,3.685v7.369c0,1.351-0.956,3.009-2.126,3.683l-6.381,3.686c-1.17,0.675-3.085,0.675-4.254,0
	l-6.382-3.686C0.957,18.253,0,16.596,0,15.245V7.875z"/>
<path fill="#FFFFFF" d="M16.999,10.622c-0.279,0-0.547,0.057-0.789,0.157c-0.163-1.836-1.702-3.275-3.58-3.275
	c-0.46,0-0.909,0.09-1.304,0.244c-0.154,0.059-0.194,0.12-0.196,0.239v6.466c0.002,0.125,0.098,0.231,0.22,0.242
	c0.005,0.002,5.611,0.002,5.648,0.002c1.125,0,2.038-0.911,2.038-2.037C19.037,11.534,18.124,10.622,16.999,10.622"/>
<path fill="#FFFFFF" d="M6.177,12.792l-0.146-2.737C6.027,9.984,5.972,9.931,5.905,9.931c-0.066,0-0.122,0.053-0.125,0.124
	l-0.129,2.737l0.129,1.77c0.003,0.069,0.059,0.125,0.125,0.125c0.067,0,0.122-0.056,0.125-0.125l0,0L6.177,12.792z"/>
<path fill="#FFFFFF" d="M5.507,12.792L5.35,11.108c-0.004-0.062-0.052-0.109-0.111-0.109c-0.059,0-0.108,0.049-0.111,0.11
	L4.99,12.792l0.138,1.769c0.003,0.063,0.052,0.109,0.111,0.109c0.059,0,0.107-0.046,0.111-0.109L5.507,12.792z"/>
<path fill="#FFFFFF" d="M6.855,12.794L6.718,9.43c-0.004-0.077-0.066-0.138-0.14-0.138c-0.074,0-0.136,0.061-0.139,0.138
	l-0.121,3.364l0.121,1.758c0.003,0.076,0.065,0.137,0.139,0.137c0.074,0,0.136-0.061,0.14-0.138l0,0L6.855,12.794z"/>
<path fill="#FFFFFF" d="M3.271,14.313c0.034,0,0.063-0.027,0.068-0.066l0.186-1.456L3.34,11.303
	c-0.006-0.039-0.035-0.066-0.069-0.066c-0.036,0-0.064,0.028-0.069,0.066l-0.164,1.488l0.164,1.456
	C3.206,14.285,3.235,14.313,3.271,14.313"/>
<path fill="#FFFFFF" d="M3.921,14.574c0.043,0,0.078-0.034,0.083-0.08l0.176-1.703l-0.176-1.766c-0.006-0.046-0.04-0.08-0.083-0.08
	s-0.079,0.034-0.083,0.08c0,0.001-0.155,1.766-0.155,1.766l0.155,1.703C3.842,14.54,3.878,14.574,3.921,14.574"/>
<path fill="#FFFFFF" d="M8.105,9.027C8.102,8.933,8.03,8.86,7.938,8.86S7.773,8.933,7.77,9.027l-0.104,3.766l0.104,1.729
	c0.003,0.093,0.076,0.167,0.168,0.167s0.164-0.074,0.167-0.167l0.119-1.729L8.105,9.027z"/>
<path fill="#FFFFFF" d="M4.578,14.642c0.051,0,0.092-0.04,0.097-0.096l0.166-1.753l-0.166-1.815
	c-0.005-0.055-0.046-0.096-0.097-0.096c-0.051,0-0.094,0.041-0.097,0.096l-0.146,1.814l0.146,1.754
	C4.484,14.602,4.526,14.642,4.578,14.642"/>
<path fill="#FFFFFF" d="M7.536,12.794L7.409,9.149C7.406,9.064,7.338,8.996,7.256,8.996c-0.084,0-0.151,0.068-0.154,0.153
	c0,0.001-0.113,3.645-0.113,3.645l0.113,1.739c0.003,0.086,0.07,0.153,0.154,0.153c0.082,0,0.15-0.067,0.153-0.154v0.002
	L7.536,12.794z"/>
<path fill="#FFFFFF" d="M8.916,12.794L8.808,9.123C8.806,9.022,8.726,8.942,8.625,8.942c-0.099,0-0.178,0.081-0.181,0.181
	l-0.096,3.671l0.096,1.713c0.003,0.1,0.082,0.181,0.181,0.181c0.101,0,0.18-0.082,0.182-0.181L8.916,12.794z"/>
<path fill="#FFFFFF" d="M2.658,11.807c-0.034,0-0.062,0.027-0.067,0.065l-0.121,0.92l0.121,0.905
	c0.005,0.038,0.033,0.065,0.067,0.065c0.033,0,0.061-0.027,0.066-0.065l0.143-0.905l-0.143-0.92
	C2.719,11.833,2.691,11.807,2.658,11.807"/>
<path fill="#FFFFFF" d="M10.318,12.794L10.23,8.586c-0.002-0.115-0.097-0.209-0.21-0.209c-0.115,0-0.209,0.095-0.21,0.209
	l-0.08,4.208c0,0.004,0.08,1.692,0.08,1.692c0.001,0.114,0.095,0.208,0.21,0.208c0.113,0,0.208-0.094,0.21-0.209v0.002
	L10.318,12.794z"/>
<path fill="#FFFFFF" d="M10.715,7.981c-0.122,0-0.224,0.101-0.226,0.224l-0.092,4.591l0.092,1.666
	c0.002,0.122,0.104,0.223,0.226,0.223c0.121,0,0.222-0.1,0.224-0.224v0.001l0.1-1.666l-0.1-4.591
	C10.937,8.082,10.835,7.981,10.715,7.981"/>
<path fill="#FFFFFF" d="M9.614,12.794L9.515,9.257C9.513,9.148,9.427,9.062,9.32,9.062c-0.109,0-0.194,0.086-0.197,0.196
	l-0.087,3.537l0.087,1.703c0.002,0.107,0.087,0.193,0.197,0.193c0.106,0,0.193-0.086,0.195-0.194v0.001L9.614,12.794z"/>
<path fill="#537FA4" d="M63.813,7.875c0-1.351,0.957-3.009,2.127-3.685l6.381-3.685c1.17-0.674,3.084-0.674,4.256,0l6.379,3.685
	c1.17,0.676,2.127,2.334,2.127,3.685v7.369c0,1.351-0.957,3.008-2.127,3.683l-6.379,3.686c-1.172,0.675-3.086,0.675-4.256,0
	l-6.381-3.686c-1.171-0.675-2.127-2.333-2.127-3.683V7.875z"/>
<path fill="#7F7F7F" d="M63.813,7.875c0-1.351,0.957-3.009,2.127-3.685l6.381-3.685c1.17-0.674,3.084-0.674,4.256,0l6.379,3.685
	c1.17,0.676,2.127,2.334,2.127,3.685v7.369c0,1.351-0.957,3.008-2.127,3.683l-6.379,3.686c-1.172,0.675-3.086,0.675-4.256,0
	l-6.381-3.686c-1.171-0.675-2.127-2.333-2.127-3.683V7.875z"/>
<path fill="#FFFFFF" d="M78.881,4.335h-8.865c-1.539,0-2.792,1.251-2.792,2.792v2.95v5.915c0,1.54,1.253,2.793,2.792,2.793h8.865
	c1.541,0,2.793-1.253,2.793-2.793v-5.915v-2.95C81.674,5.586,80.422,4.335,78.881,4.335 M79.683,6.001l0.319-0.002v0.318v2.13
	l-2.44,0.008l-0.008-2.449L79.683,6.001z M72.387,10.077c0.463-0.641,1.214-1.06,2.062-1.06c0.848,0,1.6,0.419,2.062,1.06
	c0.301,0.417,0.48,0.929,0.48,1.482c0,1.401-1.142,2.542-2.543,2.542c-1.402,0-2.543-1.142-2.543-2.542
	C71.907,11.006,72.086,10.494,72.387,10.077 M80.268,15.992c0,0.764-0.622,1.385-1.387,1.385h-8.865
	c-0.764,0-1.385-0.621-1.385-1.385v-5.915h2.158c-0.188,0.458-0.291,0.958-0.291,1.482c0,2.178,1.772,3.951,3.951,3.951
	c2.178,0,3.951-1.772,3.951-3.951c0-0.524-0.105-1.024-0.292-1.482h2.159V15.992L80.268,15.992z"/>
<path fill="#FFFFFF" d="M21.271,31.001c0-1.351,0.957-3.008,2.127-3.685l6.382-3.685c1.17-0.675,3.084-0.675,4.255,0l6.381,3.685
	c1.17,0.677,2.126,2.333,2.126,3.685v7.369c0,1.352-0.957,3.01-2.126,3.684l-6.381,3.686c-1.171,0.676-3.085,0.676-4.255,0
	l-6.382-3.686c-1.17-0.674-2.127-2.333-2.127-3.684V31.001z"/>
<path fill="#7F7F7F" d="M38.733,29.031c-0.573,0.34-1.208,0.588-1.883,0.721c-0.54-0.576-1.31-0.937-2.164-0.937
	c-1.637,0-2.964,1.328-2.964,2.964c0,0.232,0.027,0.459,0.077,0.676c-2.464-0.123-4.649-1.304-6.111-3.098
	c-0.255,0.438-0.401,0.947-0.401,1.49c0,1.027,0.524,1.936,1.319,2.467c-0.485-0.016-0.943-0.148-1.342-0.371v0.037
	c0,1.438,1.021,2.635,2.379,2.908c-0.25,0.068-0.511,0.104-0.782,0.104c-0.191,0-0.377-0.018-0.559-0.053
	c0.378,1.178,1.472,2.035,2.77,2.059c-1.015,0.795-2.292,1.271-3.683,1.271c-0.24,0-0.475-0.015-0.707-0.042
	c1.313,0.84,2.872,1.332,4.545,1.332c5.454,0,8.434-4.518,8.434-8.436c0-0.127-0.001-0.256-0.007-0.383
	c0.578-0.418,1.082-0.939,1.479-1.535c-0.532,0.236-1.103,0.396-1.703,0.465C38.042,30.305,38.511,29.723,38.733,29.031"/>
<path fill="#FFFFFF" d="M42.542,31.009c0-1.352,0.957-3.008,2.126-3.686l6.381-3.685c1.172-0.675,3.084-0.675,4.255,0l6.381,3.685
	c1.17,0.676,2.127,2.334,2.127,3.686v7.369c0,1.351-0.957,3.009-2.127,3.683l-6.381,3.687c-1.171,0.676-3.083,0.676-4.255,0
	l-6.381-3.687c-1.17-0.674-2.126-2.333-2.126-3.683V31.009z"/>
<path fill="#7F7F7F" d="M51.249,41.917h3v-7.219h2.024l0.263-2.551H54.25v-1.5c0-0.562,0.373-0.693,0.636-0.693H56.5v-2.477
	l-2.224-0.01c-2.468,0-3.028,1.848-3.028,3.029v1.65h-1.427v2.551h1.427v7.221l0,0V41.917z"/>
<path fill="#FFFFFF" d="M0,31.009c0-1.352,0.957-3.008,2.126-3.684l6.381-3.686c1.171-0.675,3.085-0.675,4.255,0l6.381,3.686
	c1.171,0.676,2.126,2.332,2.126,3.684v7.371c0,1.351-0.956,3.008-2.126,3.683l-6.381,3.687c-1.17,0.674-3.085,0.674-4.255,0
	l-6.381-3.687C0.957,41.388,0,39.73,0,38.378V31.009z"/>
<path fill="#FFFFFF" d="M63.813,31.009c0-1.35,0.957-3.008,2.127-3.684l6.381-3.685c1.17-0.675,3.084-0.675,4.256,0l6.379,3.685
	c1.17,0.676,2.127,2.334,2.127,3.684v7.369c0,1.352-0.957,3.009-2.127,3.684l-6.379,3.686c-1.172,0.676-3.086,0.676-4.256,0
	l-6.381-3.686c-1.171-0.675-2.127-2.333-2.127-3.684V31.009z"/>
<path fill="#7F7F7F" d="M78.881,27.468h-8.865c-1.539,0-2.792,1.253-2.792,2.793v2.949v5.916c0,1.541,1.253,2.793,2.792,2.793h8.865
	c1.541,0,2.793-1.252,2.793-2.793V33.21v-2.949C81.674,28.721,80.422,27.468,78.881,27.468 M79.683,29.134l0.319-0.002v0.32v2.129
	l-2.44,0.008l-0.008-2.448L79.683,29.134z M72.387,33.21c0.463-0.641,1.214-1.061,2.062-1.061c0.848,0,1.6,0.419,2.062,1.061
	c0.301,0.418,0.48,0.931,0.48,1.482c0,1.4-1.142,2.543-2.543,2.543c-1.402,0-2.543-1.143-2.543-2.543
	C71.907,34.14,72.086,33.628,72.387,33.21 M80.268,39.126c0,0.764-0.622,1.385-1.387,1.385h-8.865c-0.764,0-1.385-0.621-1.385-1.385
	V33.21h2.158c-0.188,0.459-0.291,0.959-0.291,1.482c0,2.18,1.772,3.951,3.951,3.951c2.178,0,3.951-1.773,3.951-3.951
	c0-0.523-0.105-1.025-0.292-1.482h2.159V39.126L80.268,39.126z"/>
<path fill="#7F7F7F" d="M16.814,33.773c-0.279,0-0.547,0.057-0.788,0.158c-0.163-1.836-1.702-3.276-3.58-3.276
	c-0.46,0-0.909,0.091-1.304,0.243c-0.154,0.061-0.194,0.122-0.196,0.24v6.466c0.002,0.125,0.099,0.229,0.22,0.243
	c0.005,0,5.612,0.002,5.648,0.002c1.125,0,2.038-0.911,2.038-2.037C18.852,34.685,17.939,33.773,16.814,33.773"/>
<path fill="#7F7F7F" d="M5.993,35.943l-0.147-2.736c-0.003-0.069-0.059-0.125-0.125-0.125c-0.067,0-0.122,0.053-0.126,0.125
	l-0.129,2.736l0.129,1.77c0.003,0.068,0.059,0.125,0.126,0.125c0.066,0,0.122-0.055,0.125-0.125v0.002L5.993,35.943z"/>
<path fill="#7F7F7F" d="M5.322,35.943l-0.156-1.684c-0.004-0.062-0.052-0.109-0.111-0.109c-0.059,0-0.107,0.049-0.111,0.111
	l-0.138,1.682l0.138,1.77c0.003,0.062,0.052,0.108,0.111,0.108c0.059,0,0.107-0.047,0.111-0.108L5.322,35.943z"/>
<path fill="#7F7F7F" d="M6.67,35.945l-0.137-3.363c-0.004-0.078-0.066-0.139-0.14-0.139c-0.074,0-0.136,0.061-0.139,0.139
	l-0.121,3.363l0.121,1.758c0.003,0.076,0.065,0.137,0.139,0.137c0.074,0,0.136-0.061,0.14-0.137l0,0L6.67,35.945z"/>
<path fill="#7F7F7F" d="M3.086,37.464c0.034,0,0.063-0.027,0.068-0.067l0.185-1.456l-0.184-1.486
	c-0.006-0.041-0.036-0.068-0.069-0.068c-0.036,0-0.065,0.027-0.069,0.068l-0.164,1.486l0.164,1.456
	C3.021,37.436,3.051,37.464,3.086,37.464"/>
<path fill="#7F7F7F" d="M3.737,37.725c0.043,0,0.078-0.033,0.083-0.08l0.176-1.703L3.82,34.175c-0.005-0.045-0.04-0.079-0.083-0.079
	s-0.079,0.032-0.083,0.079c0,0.003-0.154,1.767-0.154,1.767l0.154,1.703C3.658,37.691,3.693,37.725,3.737,37.725"/>
<path fill="#7F7F7F" d="M7.921,32.179c-0.003-0.096-0.075-0.168-0.167-0.168c-0.092,0-0.166,0.072-0.168,0.168l-0.104,3.766
	l0.104,1.729c0.003,0.093,0.077,0.166,0.168,0.166c0.091,0,0.164-0.073,0.167-0.166l0.119-1.729L7.921,32.179z"/>
<path fill="#7F7F7F" d="M4.394,37.792c0.051,0,0.091-0.041,0.096-0.097l0.165-1.753L4.49,34.13
	c-0.005-0.055-0.045-0.096-0.096-0.096c-0.052,0-0.094,0.041-0.098,0.096L4.15,35.943l0.146,1.753
	C4.3,37.753,4.342,37.792,4.394,37.792"/>
<path fill="#7F7F7F" d="M7.352,35.945L7.224,32.3c-0.002-0.086-0.071-0.153-0.152-0.153c-0.084,0-0.151,0.069-0.155,0.153
	c0,0.002-0.113,3.645-0.113,3.645l0.113,1.739c0.003,0.086,0.07,0.151,0.155,0.151c0.081,0,0.15-0.066,0.152-0.152v0.001
	L7.352,35.945z"/>
<path fill="#7F7F7F" d="M8.731,35.945l-0.108-3.67c-0.002-0.102-0.083-0.182-0.183-0.182c-0.099,0-0.179,0.08-0.181,0.182
	l-0.096,3.67l0.096,1.713c0.002,0.1,0.082,0.182,0.181,0.182c0.1,0,0.181-0.082,0.183-0.182L8.731,35.945z"/>
<path fill="#7F7F7F" d="M2.474,34.958c-0.035,0-0.062,0.027-0.067,0.064l-0.121,0.92l0.121,0.905
	c0.005,0.036,0.032,0.065,0.067,0.065c0.033,0,0.06-0.029,0.065-0.065l0.144-0.905l-0.144-0.92
	C2.534,34.985,2.507,34.958,2.474,34.958"/>
<path fill="#7F7F7F" d="M10.133,35.945l-0.088-4.208c-0.002-0.114-0.097-0.209-0.21-0.209c-0.116,0-0.209,0.095-0.21,0.209
	l-0.08,4.208c0,0.004,0.08,1.691,0.08,1.691c0,0.113,0.094,0.209,0.21,0.209c0.113,0,0.208-0.096,0.21-0.211v0.003L10.133,35.945z"
	/>
<path fill="#7F7F7F" d="M10.53,31.132c-0.121,0-0.223,0.102-0.225,0.224l-0.091,4.591l0.091,1.665
	c0.002,0.122,0.104,0.222,0.225,0.222c0.121,0,0.223-0.101,0.225-0.223v0.001l0.1-1.665l-0.1-4.591
	C10.752,31.233,10.651,31.132,10.53,31.132"/>
<path fill="#7F7F7F" d="M9.43,35.945l-0.099-3.537c-0.002-0.109-0.088-0.195-0.195-0.195c-0.109,0-0.194,0.086-0.196,0.195
	l-0.088,3.537l0.088,1.703c0.002,0.107,0.087,0.191,0.196,0.191c0.107,0,0.193-0.086,0.195-0.193v0.002L9.43,35.945z"/>
<path fill="#30AAE1" d="M21.272,54.203c0-1.353,0.957-3.01,2.127-3.686l6.382-3.684c1.17-0.676,3.084-0.676,4.256,0l6.381,3.684
	c1.17,0.676,2.125,2.334,2.125,3.686v7.368c0,1.351-0.957,3.009-2.125,3.685l-6.381,3.685c-1.172,0.675-3.085,0.675-4.256,0
	l-6.382-3.685c-1.17-0.676-2.127-2.334-2.127-3.685V54.203z"/>
<path fill="#0654F6" d="M21.272,54.203c0-1.353,0.957-3.01,2.127-3.686l6.382-3.684c1.17-0.676,3.084-0.676,4.256,0l6.381,3.684
	c1.17,0.676,2.125,2.334,2.125,3.686v7.368c0,1.351-0.957,3.009-2.125,3.685l-6.381,3.685c-1.172,0.675-3.085,0.675-4.256,0
	l-6.382-3.685c-1.17-0.676-2.127-2.334-2.127-3.685V54.203z"/>
<path fill="#FFFFFF" d="M38.734,52.231c-0.572,0.339-1.208,0.587-1.883,0.72c-0.54-0.576-1.311-0.937-2.164-0.937
	c-1.637,0-2.964,1.327-2.964,2.965c0,0.231,0.027,0.458,0.077,0.675c-2.464-0.123-4.649-1.304-6.111-3.097
	c-0.255,0.438-0.401,0.946-0.401,1.489c0,1.029,0.524,1.937,1.319,2.469c-0.485-0.016-0.943-0.148-1.342-0.371v0.037
	c0,1.438,1.021,2.635,2.379,2.906c-0.25,0.068-0.511,0.104-0.782,0.104c-0.191,0-0.377-0.019-0.559-0.053
	c0.378,1.177,1.472,2.034,2.77,2.06c-1.015,0.795-2.292,1.27-3.683,1.27c-0.24,0-0.475-0.016-0.707-0.043
	c1.313,0.841,2.872,1.332,4.545,1.332c5.454,0,8.434-4.516,8.434-8.434c0-0.13,0-0.258-0.007-0.385
	c0.578-0.417,1.082-0.939,1.479-1.535c-0.532,0.236-1.104,0.395-1.703,0.467C38.042,53.505,38.512,52.923,38.734,52.231"/>
<path fill="#3D5C9C" d="M42.542,54.208c0-1.352,0.957-3.008,2.127-3.685l6.381-3.685c1.172-0.674,3.084-0.674,4.255,0l6.381,3.685
	c1.17,0.677,2.127,2.334,2.127,3.685v7.369c0,1.352-0.957,3.01-2.127,3.685l-6.381,3.685c-1.171,0.676-3.083,0.676-4.255,0
	l-6.381-3.685c-1.17-0.675-2.127-2.333-2.127-3.685V54.208L42.542,54.208z"/>
<path fill="#0654F6" d="M42.542,54.208c0-1.352,0.957-3.008,2.127-3.685l6.381-3.685c1.172-0.674,3.084-0.674,4.255,0l6.381,3.685
	c1.17,0.677,2.127,2.334,2.127,3.685v7.369c0,1.352-0.957,3.01-2.127,3.685l-6.381,3.685c-1.171,0.676-3.083,0.676-4.255,0
	l-6.381-3.685c-1.17-0.675-2.127-2.333-2.127-3.685V54.208L42.542,54.208z"/>
<path fill="#FFFFFF" d="M51.25,65.119h3v-7.22h2.024l0.263-2.551h-2.285v-1.5c0-0.563,0.373-0.695,0.636-0.695h1.614v-2.476
	l-2.224-0.008c-2.468,0-3.028,1.847-3.028,3.027v1.651h-1.427v2.551h1.427V65.119L51.25,65.119z"/>
<path fill="#0654F6" d="M0.001,54.208c0-1.351,0.957-3.008,2.126-3.685l6.382-3.685c1.17-0.676,3.085-0.676,4.254,0l6.381,3.685
	c1.171,0.677,2.126,2.333,2.126,3.685v7.369c0,1.352-0.956,3.01-2.126,3.684l-6.381,3.686c-1.17,0.676-3.085,0.676-4.254,0
	l-6.382-3.686c-1.169-0.674-2.126-2.331-2.126-3.682V54.208z"/>
<path fill="#FFFFFF" d="M17,56.957c-0.279,0-0.547,0.057-0.789,0.156c-0.163-1.836-1.702-3.275-3.58-3.275
	c-0.46,0-0.909,0.09-1.304,0.244c-0.154,0.06-0.194,0.121-0.196,0.239v6.466c0.002,0.125,0.098,0.231,0.22,0.242
	c0.005,0.002,5.611,0.002,5.648,0.002c1.125,0,2.038-0.91,2.038-2.037C19.038,57.869,18.125,56.957,17,56.957"/>
<path fill="#FFFFFF" d="M6.178,59.126l-0.146-2.737c-0.004-0.071-0.059-0.124-0.126-0.124c-0.066,0-0.122,0.053-0.125,0.124
	l-0.129,2.737l0.129,1.77c0.003,0.068,0.059,0.125,0.125,0.125c0.067,0,0.122-0.057,0.125-0.125l0,0L6.178,59.126z"/>
<path fill="#FFFFFF" d="M5.508,59.126l-0.157-1.685c-0.004-0.062-0.052-0.108-0.111-0.108c-0.059,0-0.108,0.049-0.111,0.109
	l-0.138,1.684l0.138,1.769c0.003,0.063,0.052,0.108,0.111,0.108c0.059,0,0.107-0.045,0.111-0.108L5.508,59.126z"/>
<path fill="#FFFFFF" d="M6.856,59.128l-0.137-3.364c-0.004-0.077-0.066-0.138-0.14-0.138c-0.074,0-0.136,0.061-0.139,0.138
	l-0.121,3.364l0.121,1.758c0.003,0.076,0.065,0.137,0.139,0.137c0.074,0,0.136-0.061,0.14-0.139l0,0L6.856,59.128z"/>
<path fill="#FFFFFF" d="M3.272,60.647c0.034,0,0.063-0.026,0.068-0.065l0.186-1.457l-0.185-1.487
	c-0.006-0.039-0.035-0.066-0.069-0.066c-0.036,0-0.064,0.028-0.069,0.066l-0.164,1.487l0.164,1.457
	C3.207,60.619,3.236,60.647,3.272,60.647"/>
<path fill="#FFFFFF" d="M3.922,60.908c0.043,0,0.078-0.033,0.083-0.08l0.176-1.703l-0.176-1.766c-0.006-0.046-0.04-0.08-0.083-0.08
	s-0.079,0.034-0.083,0.08c0,0.001-0.155,1.766-0.155,1.766l0.155,1.703C3.843,60.875,3.879,60.908,3.922,60.908"/>
<path fill="#FFFFFF" d="M8.106,55.361c-0.003-0.094-0.075-0.167-0.167-0.167s-0.165,0.073-0.168,0.167l-0.104,3.766l0.104,1.729
	c0.003,0.093,0.076,0.167,0.168,0.167s0.164-0.074,0.167-0.167l0.119-1.729L8.106,55.361z"/>
<path fill="#FFFFFF" d="M4.579,60.976c0.051,0,0.092-0.04,0.097-0.096l0.166-1.754l-0.166-1.814
	c-0.005-0.055-0.046-0.096-0.097-0.096c-0.051,0-0.094,0.041-0.097,0.096l-0.146,1.814l0.146,1.754
	C4.485,60.936,4.527,60.976,4.579,60.976"/>
<path fill="#FFFFFF" d="M7.537,59.128L7.41,55.483c-0.003-0.085-0.071-0.153-0.153-0.153c-0.084,0-0.151,0.068-0.154,0.153
	c0,0.001-0.113,3.646-0.113,3.646l0.113,1.738c0.003,0.086,0.07,0.153,0.154,0.153c0.082,0,0.15-0.067,0.153-0.153v0.002
	L7.537,59.128z"/>
<path fill="#FFFFFF" d="M8.917,59.128l-0.108-3.672c-0.002-0.101-0.082-0.181-0.183-0.181c-0.099,0-0.178,0.081-0.181,0.181
	l-0.096,3.672l0.096,1.713c0.003,0.1,0.082,0.181,0.181,0.181c0.101,0,0.18-0.082,0.182-0.181L8.917,59.128z"/>
<path fill="#FFFFFF" d="M2.659,58.141c-0.034,0-0.062,0.026-0.067,0.065l-0.121,0.92l0.121,0.904
	c0.005,0.038,0.033,0.065,0.067,0.065c0.033,0,0.061-0.027,0.066-0.065l0.143-0.904l-0.143-0.92
	C2.72,58.167,2.692,58.141,2.659,58.141"/>
<path fill="#FFFFFF" d="M10.319,59.128l-0.088-4.209c-0.002-0.114-0.097-0.209-0.21-0.209c-0.115,0-0.209,0.096-0.21,0.209
	l-0.08,4.209c0,0.004,0.08,1.691,0.08,1.691c0.001,0.114,0.095,0.208,0.21,0.208c0.113,0,0.208-0.094,0.21-0.209v0.002
	L10.319,59.128z"/>
<path fill="#FFFFFF" d="M10.716,54.315c-0.122,0-0.224,0.101-0.226,0.224l-0.092,4.592l0.092,1.666
	c0.002,0.121,0.104,0.223,0.226,0.223c0.121,0,0.222-0.1,0.224-0.225v0.002l0.1-1.666l-0.1-4.592
	C10.938,54.416,10.836,54.315,10.716,54.315"/>
<path fill="#FFFFFF" d="M9.615,59.128l-0.099-3.537c-0.002-0.109-0.088-0.195-0.195-0.195c-0.109,0-0.194,0.086-0.197,0.195
	l-0.087,3.537l0.087,1.703c0.002,0.107,0.087,0.193,0.197,0.193c0.106,0,0.193-0.086,0.195-0.193l0,0L9.615,59.128z"/>
<path fill="#537FA4" d="M63.814,54.208c0-1.351,0.957-3.008,2.127-3.685l6.381-3.685c1.17-0.674,3.084-0.674,4.256,0l6.379,3.685
	c1.17,0.677,2.127,2.334,2.127,3.685v7.369c0,1.352-0.957,3.008-2.127,3.684l-6.379,3.686c-1.172,0.676-3.086,0.676-4.256,0
	l-6.381-3.686c-1.171-0.676-2.127-2.334-2.127-3.684V54.208z"/>
<path fill="#0654F6" d="M63.814,54.208c0-1.351,0.957-3.008,2.127-3.685l6.381-3.685c1.17-0.674,3.084-0.674,4.256,0l6.379,3.685
	c1.17,0.677,2.127,2.334,2.127,3.685v7.369c0,1.352-0.957,3.008-2.127,3.684l-6.379,3.686c-1.172,0.676-3.086,0.676-4.256,0
	l-6.381-3.686c-1.171-0.676-2.127-2.334-2.127-3.684V54.208z"/>
<path fill="#FFFFFF" d="M78.882,50.669h-8.865c-1.539,0-2.792,1.25-2.792,2.791v2.951v5.914c0,1.541,1.253,2.793,2.792,2.793h8.865
	c1.541,0,2.793-1.252,2.793-2.793v-5.914V53.46C81.675,51.919,80.423,50.669,78.882,50.669 M79.684,52.335l0.319-0.002v0.317v2.13
	l-2.44,0.008l-0.008-2.449L79.684,52.335z M72.388,56.412c0.463-0.642,1.214-1.061,2.062-1.061c0.848,0,1.6,0.419,2.062,1.061
	c0.301,0.416,0.48,0.928,0.48,1.481c0,1.401-1.142,2.542-2.543,2.542c-1.402,0-2.543-1.143-2.543-2.542
	C71.908,57.339,72.087,56.828,72.388,56.412 M80.269,62.326c0,0.764-0.622,1.385-1.387,1.385h-8.865
	c-0.764,0-1.385-0.621-1.385-1.385v-5.914h2.158c-0.188,0.457-0.291,0.957-0.291,1.481c0,2.178,1.772,3.95,3.951,3.95
	c2.178,0,3.951-1.771,3.951-3.95c0-0.524-0.105-1.024-0.292-1.481h2.159V62.326L80.269,62.326z"/>
</svg>
